HIERARCHY
ROOT Hips
{
  OFFSET 265.287 66.7526 -254.649
  CHANNELS 6 Xposition Yposition Zposition Zrotation Xrotation Yrotation
  JOINT LeftUpLeg
  {
    OFFSET 8.64259 1.95398 -2.38835
    CHANNELS 3 Zrotation Xrotation Yrotation
    JOINT LeftLeg
    {
      OFFSET 43.7702 0 0
      CHANNELS 3 Zrotation Xrotation Yrotation
      JOINT LeftFoot
      {
        OFFSET 40.6238 0 0
        CHANNELS 3 Zrotation Xrotation Yrotation
        JOINT LeftToeBase
        {
          OFFSET 12.7242 0 0
          CHANNELS 3 Zrotation Xrotation Yrotation
          End Site
          {
            OFFSET 0 0 0
          }
        }
      }
    }
  }
  JOINT RightUpLeg
  {
    OFFSET -8.2249 1.95398 -2.59336
    CHANNELS 3 Zrotation Xrotation Yrotation
    JOINT RightLeg
    {
      OFFSET 43.5653 0 0
      CHANNELS 3 Zrotation Xrotation Yrotation
      JOINT RightFoot
      {
        OFFSET 40.6238 0 0
        CHANNELS 3 Zrotation Xrotation Yrotation
        JOINT RightToeBase
        {
          OFFSET 12.7242 0 0
          CHANNELS 3 Zrotation Xrotation Yrotation
          End Site
          {
            OFFSET 0 0 0
          }
        }
      }
    }
  }
  JOINT Spine
  {
    OFFSET 0.165834 0.87714 6.61349
    CHANNELS 3 Zrotation Xrotation Yrotation
    JOINT Spine1
    {
      OFFSET 7.38963 1.71661e-005 0
      CHANNELS 3 Zrotation Xrotation Yrotation
      JOINT Spine2
      {
        OFFSET 11.9445 1.14441e-005 0
        CHANNELS 3 Zrotation Xrotation Yrotation
        JOINT Spine3
        {
          OFFSET 14.7254 4.19617e-005 0
          CHANNELS 3 Zrotation Xrotation Yrotation
          JOINT Spine4
          {
            OFFSET 10.9679 0 0
            CHANNELS 3 Zrotation Xrotation Yrotation
            JOINT RightShoulder
            {
              OFFSET 2.46616 -1.6653 3.69651
              CHANNELS 3 Zrotation Xrotation Yrotation
              JOINT RightArm
              {
                OFFSET 13.0012 0 0
                CHANNELS 3 Zrotation Xrotation Yrotation
                JOINT RightForeArm
                {
                  OFFSET 28.7848 1.52588e-005 0
                  CHANNELS 3 Zrotation Xrotation Yrotation
                  JOINT RightHand
                  {
                    OFFSET 26.5688 1.52588e-005 0
                    CHANNELS 3 Zrotation Xrotation Yrotation
                    End Site
                    {
                      OFFSET 0 0 0
                    }
                  }
                }
              }
            }
            JOINT LeftShoulder
            {
              OFFSET 2.38034 -1.29275 -3.7523
              CHANNELS 3 Zrotation Xrotation Yrotation
              JOINT LeftArm
              {
                OFFSET 16.3182 6.10351e-005 0
                CHANNELS 3 Zrotation Xrotation Yrotation
                JOINT LeftForeArm
                {
                  OFFSET 27.0901 0 0
                  CHANNELS 3 Zrotation Xrotation Yrotation
                  JOINT LeftHand
                  {
                    OFFSET 24.5451 1.52588e-005 0
                    CHANNELS 3 Zrotation Xrotation Yrotation
                    End Site
                    {
                      OFFSET 0 0 0
                    }
                  }
                }
              }
            }
            JOINT Neck
            {
              OFFSET 5.0226 -0.0266342 0
              CHANNELS 3 Zrotation Xrotation Yrotation
              JOINT Head
              {
                OFFSET 6.69364 2.86102e-005 0
                CHANNELS 3 Zrotation Xrotation Yrotation
                End Site
                {
                  OFFSET 0 0 0
                }
              }
            }
          }
        }
      }
    }
  }
}
MOTION
Frames:	12
Frame Time:	0.0416667
-281.981 63.6281 295.078 97.5586 32.5206 87.8624 -165.533 22.6215 100.645 -79.6886 55.563 -15.7539 111.52 46.3104 21.6811 127.816 -39.9028 -4.58058 171.552 -4.55489 38.3598 -98.884 -53.4601 13.7984 26.132 74.1209 126.539 -42.8637 11.7308 1.46598 2.98712 4.19935 -89.695 18.5236 6.02254 -0.561127 6.86636 5.99197 -0.826613 -15.7782 5.91172 1.2814 4.23441 5.91173 1.28138 121.273 -8.5856 -26.4694 80.0488 -31.7187 -21.0441 0.603701 -35.2584 -28.2325 2.51073 3.13537 85.5062 -62.4525 -26.1768 128.38 -27.0958 73.7945 15.6916 129.134 6.03526 -74.4588 22.7241 -3.48905 -19.5544 45.6805 -10.0421 9.92534 -96.0397 -2.10831 -13.9088 
-282.725 63.8475 295.906 97.5618 32.5756 87.9338 -165.422 23.7802 100.968 -79.8123 56.1315 -15.8083 110.783 45.7981 21.6602 129.086 -42.7587 -6.82047 170.857 -5.50043 37.8356 -96.9896 -54.1948 14.7223 30.7326 74.1992 122.685 -41.9388 11.883 1.05657 2.98044 4.2124 -89.704 18.4974 6.00503 -0.574048 6.84012 5.97392 -0.838735 -15.8039 5.89889 1.26375 4.20873 5.89892 1.26376 121.343 -8.67966 -26.4038 80.0764 -31.594 -20.8381 0.373564 -35.3906 -28.6069 2.16714 2.76365 84.9405 -62.4232 -26.2764 128.391 -28.5033 74.3389 18.4434 134.924 7.10913 -74.2419 20.1852 -2.64718 -17.0815 45.9048 -9.84627 10.142 -96.2597 -1.88876 -14.0197 
-284.891 64.4675 298.309 97.5644 32.7417 88.1425 -165.744 26.8158 103.118 -76.7345 58.2353 -19.6538 107.669 44.6928 21.5424 130.143 -49.8356 -13.588 168.759 -8.18103 36.2659 -91.0705 -56.0928 17.7174 44.2284 73.9905 111.533 -39.2428 12.4964 -0.386349 2.96041 4.25095 -89.7302 18.4205 5.95289 -0.610963 6.76294 5.92023 -0.873306 -15.8794 5.86032 1.21274 4.1332 5.86033 1.21274 121.551 -8.95833 -26.2117 80.1244 -31.2626 -20.2709 -0.252624 -35.7247 -29.6631 0.981165 1.51637 83.2816 -62.3363 -26.5693 128.426 -33.8493 75.6994 27.7065 147.442 9.77254 -73.1402 13.7895 -1.02207 -10.8334 46.5449 -9.28509 10.751 -96.8799 -1.26515 -14.3283 
-288.399 65.4049 302.157 97.5708 33.0278 88.4711 -167.22 30.9149 107.765 -66.702 60.6956 -30.6403 101.63 42.7016 21.4568 126.352 -57.6656 -25.0955 165.073 -12.2846 33.592 -80.4256 -58.3601 23.3849 65.6458 72.46 94.9384 -35.0724 14.2103 -3.79508 2.92613 4.31445 -89.7719 18.2935 5.8654 -0.6687 6.63555 5.83024 -0.927065 -16.0041 5.79426 1.13114 4.00858 5.79423 1.13113 121.896 -9.42284 -25.8977 80.1189 -30.815 -19.4444 -1.0851 -36.1162 -31.2384 -1.85091 -1.24944 80.5796 -62.1907 -27.0511 128.486 -46.0408 76.9038 46.1917 158.953 13.2373 -70.1141 6.90295 0.0360001 -2.74427 47.5484 -8.40466 11.6721 -97.8312 -0.303208 -14.7851 
-293.177 66.4741 307.23 97.5854 33.4449 88.9044 -166.058 38.2903 105.204 -75.1892 60.6398 -20.7343 99.44 35.8832 22.4111 116.662 -63.2443 -40.4513 158.86 -18.5392 27.9854 -60.4916 -57.8837 36.2146 87.5742 68.8206 82.1272 -31.6413 19.083 -11.4044 2.87667 4.40329 -89.828 18.1157 5.7411 -0.745062 6.45713 5.70271 -0.997834 -16.1785 5.69869 1.02063 3.83413 5.6987 1.02061 122.384 -10.0801 -25.464 79.977 -30.3554 -18.475 -1.3788 -36.304 -32.8043 -11.044 -9.00442 76.3375 -61.9839 -27.7208 128.579 -63.7308 76.0826 72.1351 167.053 17.171 -64.8998 1.55437 0.259402 5.8104 48.8634 -7.25343 12.816 -99.0399 0.924535 -15.3356 
-299.047 67.1129 313.035 97.6204 33.9933 89.4347 -164.334 46.2678 100.749 -84.3591 58.2606 -9.24957 97.725 27.1796 22.5145 104.535 -65.8768 -56.3463 130.528 -37.3603 -3.17216 -13.9506 -20.425 71.6442 66.7796 66.4322 105.474 -41.8838 33.5982 -22.1384 2.81221 4.5183 -89.8993 17.8854 5.58023 -0.841791 6.22604 5.53777 -1.08732 -16.4045 5.57443 0.8796 3.60812 5.57442 0.879595 123.022 -10.9383 -24.9139 79.6271 -29.979 -17.4753 5.91641 -27.6901 -29.1601 -90.0365 -36.1169 38.8903 -61.7137 -28.5775 128.705 -76.0728 72.2661 93.8884 172.7 21.1965 -58.3406 -2.32294 -0.0799481 13.9616 50.437 -5.87869 14.0983 -100.434 2.34834 -15.9311 
-303.813 67.7477 318.68 97.7144 34.6461 90.073 -165.128 51.9547 98.866 -87.3386 56.4339 -3.00392 96.4056 18.3258 22.6202 94.0488 -66.5473 -69.3214 108.251 -42.7315 -9.16986 15.1745 -5.36629 67.2147 -154.959 59.6395 -11.9663 -93.6269 46.8301 -5.53001 2.73632 4.66133 -89.9911 17.5992 5.38699 -0.970771 5.93884 5.33905 -1.20758 -16.6857 5.42897 0.698022 3.32693 5.42895 0.698021 123.816 -12.0026 -24.2527 79.0159 -29.7609 -16.5478 41.0455 40.4127 -37.034 -143.661 56.7495 -28.3059 -61.3808 -29.6167 128.864 -78.8849 66.8407 106.189 176.985 24.6925 -51.7951 -5.21443 -0.738259 21.3404 52.2144 -4.32753 15.4434 -101.942 3.90321 -16.533 
-306.729 69.5084 324.349 97.9816 35.3325 90.8782 -170.375 54.1809 101.782 -84.8251 53.8652 -0.0126555 96.5038 8.54452 21.2885 86.5792 -66.4124 -78.4961 109.176 -42.493 3.38625 44.4965 -42.1033 60.6186 -136.634 18.7839 14.8134 -127.016 49.5251 11.2849 2.65788 4.8377 -90.1206 17.2471 5.17046 -1.16846 5.58572 5.114 -1.39544 -17.0322 5.28193 0.443891 2.98041 5.28191 0.443889 124.768 -13.272 -23.4898 78.1099 -29.7481 -15.7796 146.865 53.3875 -126.617 -15.2716 43.0356 -149.502 -60.9907 -30.826 129.048 -75.7736 61.6392 111.685 -179.497 27.0018 -46.4569 -7.50263 -1.57635 27.9132 54.1357 -2.64926 16.7855 -103.496 5.529 -17.1136 
-313.38 68.2918 332.15 98.6174 35.978 91.9611 -179.559 60.0113 107.637 -81.6001 50.7677 0.703361 93.1497 -2.94389 20.6566 81.6994 -66.1369 -84.6003 101.661 -42.4878 13.4018 -173.902 77.8255 173.457 -75.867 -5.68468 -155.459 43.4358 65.7212 -166.408 2.58852 5.05636 -90.3168 16.8127 4.93885 -1.49468 5.15002 4.86827 -1.71105 -17.4607 5.15915 0.0626218 2.55194 5.15915 0.0626166 125.872 -14.7353 -22.6395 76.8993 -29.9514 -15.2317 167.094 37.7895 -138.77 -8.121 20.6984 -145.641 -60.5567 -32.1819 129.242 -69.8175 57.6561 113.009 -176.54 27.7493 -42.7798 -9.41627 -2.52783 33.7653 56.1372 -0.895759 18.0716 -105.03 7.17309 -17.6581 
-320.583 66.0854 339.916 99.7039 36.587 93.3745 164.992 63.425 119.538 -75.7167 47.8352 -0.178632 88.9287 -15.0516 20.5111 78.7815 -66.0332 -88.437 97.3991 -41.2423 5.17819 -0.58891 -8.85744 3.08131 -69.9165 9.88082 -48.2195 44.2037 -24.4474 -152.669 2.53315 5.31807 -90.5917 16.2939 4.69738 -1.97435 4.62959 4.60594 -2.1795 -17.9725 5.07306 -0.468036 2.04013 5.07309 -0.468045 127.115 -16.3696 -21.7195 75.3966 -30.3492 -14.933 173.765 29.1744 -139.232 -5.05942 9.86375 -136.673 -60.0999 -33.6484 129.421 -62.5581 55.013 111.699 -174.079 27.0036 -40.6032 -11.0798 -3.55727 38.9888 58.1543 0.879519 19.2625 -106.486 8.79169 -18.1621 
-327.451 63.6417 347.002 101.102 37.2071 95.0472 146.904 61.975 134.144 -67.0767 45.6914 -2.29627 85.5187 -27.5289 21.9893 77.5651 -66.3278 -90.3827 94.1501 -39.1391 -2.33891 -4.28836 27.4476 4.79744 -52.8653 -13.4559 -78.2065 90.7208 -66.3545 -93.2939 2.49232 5.60933 -90.9244 15.716 4.45847 -2.56829 4.04982 4.34116 -2.76221 -18.5415 5.02379 -1.10705 1.47116 5.02379 -1.10704 128.477 -18.1394 -20.7515 73.6347 -30.8955 -14.8799 -179.994 21.2111 -138.458 -1.24058 1.1927 -127.257 -59.6509 -35.1762 129.554 -54.8256 53.3336 108.75 -172.045 25.1676 -39.5461 -12.5619 -4.63965 43.66 60.1228 2.62232 20.3312 -107.816 10.349 -18.6286 
-333.791 61.3794 353.292 102.616 37.8555 96.8671 133.211 55.6464 145.003 -51.7542 60.2749 -8.68813 104.117 -41.5999 49.2496 80.6543 -68.4535 -88.3267 92.3177 -36.3372 -8.295 -7.40712 42.4563 6.44809 -49.7557 -35.5699 -89.9952 145.355 -53.8267 -26.1118 2.46705 5.91228 -91.2839 15.1141 4.24028 -3.21955 3.44559 4.09454 -3.40307 -19.1327 5.0114 -1.79462 0.879932 5.0114 -1.79463 129.924 -19.9974 -19.7609 71.6661 -31.5291 -15.0371 -169.952 10.0077 -137.658 5.66784 -9.11642 -116.803 -59.2479 -36.7036 129.604 -47.2414 52.1256 104.967 -170.333 22.7645 -39.2438 -13.8993 -5.75258 47.8372 61.9798 4.28197 21.2622 -108.982 11.819 -19.0655 
